<mxfile host="app.diagrams.net" modified="2020-11-16T03:59:09.141Z" agent="5.0 (Windows NT 10.0; Win64; x64) AppleWebKit/537.36 (KHTML, like Gecko) Chrome/86.0.4240.193 Safari/537.36" etag="L7YfX4F-85N_ex6WPwRX" version="13.9.9" type="github" pages="2">
  <diagram name="Page-1" id="0783ab3e-0a74-02c8-0abd-f7b4e66b4bec">
    <mxGraphModel dx="1384" dy="774" grid="1" gridSize="10" guides="1" tooltips="1" connect="1" arrows="1" fold="1" page="1" pageScale="1" pageWidth="850" pageHeight="1100" background="#ffffff" math="0" shadow="0">
      <root>
        <mxCell id="0" />
        <mxCell id="1" parent="0" />
        <mxCell id="1c1d494c118603dd-1" value="Pool" style="swimlane;html=1;childLayout=stackLayout;startSize=20;rounded=0;shadow=0;comic=0;labelBackgroundColor=none;strokeWidth=1;fontFamily=Verdana;fontSize=12;align=center;" parent="1" vertex="1">
          <mxGeometry x="40" y="20" width="860" height="870" as="geometry" />
        </mxCell>
        <mxCell id="1c1d494c118603dd-2" value="教师" style="swimlane;html=1;startSize=20;fontStyle=0" parent="1c1d494c118603dd-1" vertex="1">
          <mxGeometry y="20" width="470" height="850" as="geometry" />
        </mxCell>
        <mxCell id="1c1d494c118603dd-34" style="edgeStyle=none;rounded=0;html=1;labelBackgroundColor=none;startArrow=none;startFill=0;startSize=5;endArrow=classicThin;endFill=1;endSize=5;jettySize=auto;orthogonalLoop=1;strokeWidth=1;fontFamily=Verdana;fontSize=12" parent="1c1d494c118603dd-2" target="1c1d494c118603dd-10" edge="1">
          <mxGeometry relative="1" as="geometry">
            <mxPoint x="148.75" y="250" as="sourcePoint" />
          </mxGeometry>
        </mxCell>
        <mxCell id="1c1d494c118603dd-35" style="edgeStyle=none;rounded=0;html=1;labelBackgroundColor=none;startArrow=none;startFill=0;startSize=5;endArrow=classicThin;endFill=1;endSize=5;jettySize=auto;orthogonalLoop=1;strokeWidth=1;fontFamily=Verdana;fontSize=12" parent="1c1d494c118603dd-2" target="1c1d494c118603dd-7" edge="1">
          <mxGeometry relative="1" as="geometry">
            <mxPoint x="162.72727272727275" y="310" as="sourcePoint" />
          </mxGeometry>
        </mxCell>
        <mxCell id="1c1d494c118603dd-46" style="edgeStyle=none;rounded=0;html=1;labelBackgroundColor=none;startArrow=none;startFill=0;startSize=5;endArrow=oval;endFill=0;endSize=5;jettySize=auto;orthogonalLoop=1;strokeWidth=1;fontFamily=Verdana;fontSize=12;dashed=1;" parent="1c1d494c118603dd-2" source="1c1d494c118603dd-21" edge="1">
          <mxGeometry relative="1" as="geometry">
            <mxPoint x="120.625" y="250" as="targetPoint" />
          </mxGeometry>
        </mxCell>
        <mxCell id="1c1d494c118603dd-47" style="edgeStyle=none;rounded=0;html=1;dashed=1;labelBackgroundColor=none;startArrow=none;startFill=0;startSize=5;endArrow=oval;endFill=0;endSize=5;jettySize=auto;orthogonalLoop=1;strokeWidth=1;fontFamily=Verdana;fontSize=12" parent="1c1d494c118603dd-2" source="1c1d494c118603dd-21" edge="1">
          <mxGeometry relative="1" as="geometry">
            <mxPoint x="140" y="295" as="targetPoint" />
          </mxGeometry>
        </mxCell>
        <mxCell id="RzNf7ufrXm6JMsSWA6BV-1" value="登录系统" style="rounded=1;whiteSpace=wrap;html=1;shadow=0;comic=0;labelBackgroundColor=none;strokeWidth=1;fontFamily=Verdana;fontSize=12;align=center;arcSize=50;" vertex="1" parent="1c1d494c118603dd-2">
          <mxGeometry x="261" y="40" width="100" height="30" as="geometry" />
        </mxCell>
        <mxCell id="RzNf7ufrXm6JMsSWA6BV-10" value="" style="rhombus;" vertex="1" parent="1c1d494c118603dd-2">
          <mxGeometry x="296" y="100" width="30" height="30" as="geometry" />
        </mxCell>
        <mxCell id="RzNf7ufrXm6JMsSWA6BV-13" value="登录成功" style="html=1;verticalAlign=bottom;endArrow=block;" edge="1" parent="1c1d494c118603dd-2">
          <mxGeometry width="80" relative="1" as="geometry">
            <mxPoint x="311" y="130" as="sourcePoint" />
            <mxPoint x="311" y="170" as="targetPoint" />
            <mxPoint as="offset" />
          </mxGeometry>
        </mxCell>
        <mxCell id="RzNf7ufrXm6JMsSWA6BV-15" value="" style="whiteSpace=wrap;html=1;rounded=0;shadow=0;comic=0;labelBackgroundColor=none;strokeWidth=1;fillColor=#000000;fontFamily=Verdana;fontSize=12;align=center;rotation=0;" vertex="1" parent="1c1d494c118603dd-2">
          <mxGeometry x="286" y="170" width="50" height="10" as="geometry" />
        </mxCell>
        <mxCell id="RzNf7ufrXm6JMsSWA6BV-17" value="添加课程" style="rounded=1;whiteSpace=wrap;html=1;shadow=0;comic=0;labelBackgroundColor=none;strokeWidth=1;fontFamily=Verdana;fontSize=12;align=center;arcSize=50;" vertex="1" parent="1c1d494c118603dd-2">
          <mxGeometry x="261" y="250" width="100" height="30" as="geometry" />
        </mxCell>
        <mxCell id="RzNf7ufrXm6JMsSWA6BV-18" value="修改课程课件" style="rounded=1;whiteSpace=wrap;html=1;shadow=0;comic=0;labelBackgroundColor=none;strokeWidth=1;fontFamily=Verdana;fontSize=12;align=center;arcSize=50;" vertex="1" parent="1c1d494c118603dd-2">
          <mxGeometry x="326" y="210" width="100" height="30" as="geometry" />
        </mxCell>
        <mxCell id="RzNf7ufrXm6JMsSWA6BV-19" value="修改课程资源" style="rounded=1;whiteSpace=wrap;html=1;shadow=0;comic=0;labelBackgroundColor=none;strokeWidth=1;fontFamily=Verdana;fontSize=12;align=center;arcSize=50;" vertex="1" parent="1c1d494c118603dd-2">
          <mxGeometry x="186" y="210" width="100" height="30" as="geometry" />
        </mxCell>
        <mxCell id="RzNf7ufrXm6JMsSWA6BV-52" style="edgeStyle=none;rounded=0;html=1;labelBackgroundColor=none;startArrow=none;startFill=0;startSize=5;endArrow=classicThin;endFill=1;endSize=5;jettySize=auto;orthogonalLoop=1;strokeWidth=1;fontFamily=Verdana;fontSize=12;exitX=0.5;exitY=1;exitDx=0;exitDy=0;" edge="1" parent="1c1d494c118603dd-2" source="RzNf7ufrXm6JMsSWA6BV-15" target="RzNf7ufrXm6JMsSWA6BV-19">
          <mxGeometry relative="1" as="geometry">
            <mxPoint x="321" y="80" as="sourcePoint" />
            <mxPoint x="321" y="110" as="targetPoint" />
          </mxGeometry>
        </mxCell>
        <mxCell id="RzNf7ufrXm6JMsSWA6BV-53" style="edgeStyle=none;rounded=0;html=1;labelBackgroundColor=none;startArrow=none;startFill=0;startSize=5;endArrow=classicThin;endFill=1;endSize=5;jettySize=auto;orthogonalLoop=1;strokeWidth=1;fontFamily=Verdana;fontSize=12;exitX=0.5;exitY=1;exitDx=0;exitDy=0;entryX=0.5;entryY=0;entryDx=0;entryDy=0;" edge="1" parent="1c1d494c118603dd-2" source="RzNf7ufrXm6JMsSWA6BV-15" target="RzNf7ufrXm6JMsSWA6BV-18">
          <mxGeometry relative="1" as="geometry">
            <mxPoint x="331" y="90" as="sourcePoint" />
            <mxPoint x="331" y="120" as="targetPoint" />
          </mxGeometry>
        </mxCell>
        <mxCell id="RzNf7ufrXm6JMsSWA6BV-16" style="edgeStyle=none;rounded=0;html=1;labelBackgroundColor=none;startArrow=none;startFill=0;startSize=5;endArrow=classicThin;endFill=1;endSize=5;jettySize=auto;orthogonalLoop=1;strokeWidth=1;fontFamily=Verdana;fontSize=12;exitX=0.5;exitY=1;exitDx=0;exitDy=0;entryX=0.5;entryY=0;entryDx=0;entryDy=0;" edge="1" parent="1c1d494c118603dd-2" source="RzNf7ufrXm6JMsSWA6BV-15" target="RzNf7ufrXm6JMsSWA6BV-17">
          <mxGeometry relative="1" as="geometry">
            <mxPoint x="321" y="80" as="sourcePoint" />
            <mxPoint x="311" y="240" as="targetPoint" />
          </mxGeometry>
        </mxCell>
        <mxCell id="RzNf7ufrXm6JMsSWA6BV-99" style="edgeStyle=orthogonalEdgeStyle;rounded=0;orthogonalLoop=1;jettySize=auto;html=1;exitX=0.5;exitY=1;exitDx=0;exitDy=0;entryX=0.5;entryY=0;entryDx=0;entryDy=0;" edge="1" parent="1c1d494c118603dd-2" source="RzNf7ufrXm6JMsSWA6BV-92" target="RzNf7ufrXm6JMsSWA6BV-93">
          <mxGeometry relative="1" as="geometry" />
        </mxCell>
        <mxCell id="RzNf7ufrXm6JMsSWA6BV-92" value="退出系统" style="rounded=1;whiteSpace=wrap;html=1;shadow=0;comic=0;labelBackgroundColor=none;strokeWidth=1;fontFamily=Verdana;fontSize=12;align=center;arcSize=50;" vertex="1" parent="1c1d494c118603dd-2">
          <mxGeometry x="276" y="680" width="100" height="30" as="geometry" />
        </mxCell>
        <mxCell id="RzNf7ufrXm6JMsSWA6BV-93" value="" style="ellipse;html=1;shape=endState;fillColor=#000000;strokeColor=#000000;" vertex="1" parent="1c1d494c118603dd-2">
          <mxGeometry x="311" y="760" width="30" height="30" as="geometry" />
        </mxCell>
        <mxCell id="RzNf7ufrXm6JMsSWA6BV-98" value="停止操作" style="edgeStyle=orthogonalEdgeStyle;rounded=0;orthogonalLoop=1;jettySize=auto;html=1;exitX=0.5;exitY=1;exitDx=0;exitDy=0;entryX=0.5;entryY=0;entryDx=0;entryDy=0;" edge="1" parent="1c1d494c118603dd-2" source="RzNf7ufrXm6JMsSWA6BV-94" target="RzNf7ufrXm6JMsSWA6BV-92">
          <mxGeometry relative="1" as="geometry" />
        </mxCell>
        <mxCell id="RzNf7ufrXm6JMsSWA6BV-94" value="" style="rhombus;" vertex="1" parent="1c1d494c118603dd-2">
          <mxGeometry x="306" y="567" width="30" height="30" as="geometry" />
        </mxCell>
        <mxCell id="1c1d494c118603dd-36" style="edgeStyle=none;rounded=0;html=1;labelBackgroundColor=none;startArrow=none;startFill=0;startSize=5;endArrow=classicThin;endFill=1;endSize=5;jettySize=auto;orthogonalLoop=1;strokeWidth=1;fontFamily=Verdana;fontSize=12" parent="1c1d494c118603dd-1" target="1c1d494c118603dd-14" edge="1">
          <mxGeometry relative="1" as="geometry">
            <mxPoint x="180" y="383.0434782608695" as="sourcePoint" />
          </mxGeometry>
        </mxCell>
        <mxCell id="1c1d494c118603dd-42" style="edgeStyle=none;rounded=0;html=1;labelBackgroundColor=none;startArrow=none;startFill=0;startSize=5;endArrow=classicThin;endFill=1;endSize=5;jettySize=auto;orthogonalLoop=1;strokeWidth=1;fontFamily=Verdana;fontSize=12" parent="1c1d494c118603dd-1" target="1c1d494c118603dd-17" edge="1">
          <mxGeometry relative="1" as="geometry">
            <mxPoint x="514.9999999999998" y="628.0434782608695" as="sourcePoint" />
          </mxGeometry>
        </mxCell>
        <mxCell id="RzNf7ufrXm6JMsSWA6BV-75" style="edgeStyle=orthogonalEdgeStyle;rounded=0;orthogonalLoop=1;jettySize=auto;html=1;exitX=0.5;exitY=1;exitDx=0;exitDy=0;entryX=0.5;entryY=0;entryDx=0;entryDy=0;" edge="1" parent="1c1d494c118603dd-1" source="RzNf7ufrXm6JMsSWA6BV-73">
          <mxGeometry relative="1" as="geometry">
            <mxPoint x="321" y="587" as="targetPoint" />
          </mxGeometry>
        </mxCell>
        <mxCell id="RzNf7ufrXm6JMsSWA6BV-77" value="通过" style="edgeLabel;html=1;align=center;verticalAlign=middle;resizable=0;points=[];" vertex="1" connectable="0" parent="RzNf7ufrXm6JMsSWA6BV-75">
          <mxGeometry x="-0.6627" y="1" relative="1" as="geometry">
            <mxPoint as="offset" />
          </mxGeometry>
        </mxCell>
        <mxCell id="RzNf7ufrXm6JMsSWA6BV-82" style="edgeStyle=orthogonalEdgeStyle;rounded=0;orthogonalLoop=1;jettySize=auto;html=1;exitX=0.5;exitY=1;exitDx=0;exitDy=0;entryX=0.5;entryY=0;entryDx=0;entryDy=0;" edge="1" parent="1c1d494c118603dd-1" source="RzNf7ufrXm6JMsSWA6BV-18" target="RzNf7ufrXm6JMsSWA6BV-50">
          <mxGeometry relative="1" as="geometry" />
        </mxCell>
        <mxCell id="1c1d494c118603dd-3" value="系统管理员" style="swimlane;html=1;startSize=20;" parent="1c1d494c118603dd-1" vertex="1">
          <mxGeometry x="470" y="20" width="380" height="850" as="geometry" />
        </mxCell>
        <mxCell id="1c1d494c118603dd-39" style="edgeStyle=none;rounded=0;html=1;labelBackgroundColor=none;startArrow=none;startFill=0;startSize=5;endArrow=classicThin;endFill=1;endSize=5;jettySize=auto;orthogonalLoop=1;strokeWidth=1;fontFamily=Verdana;fontSize=12" parent="1c1d494c118603dd-3" target="1c1d494c118603dd-11" edge="1">
          <mxGeometry relative="1" as="geometry">
            <mxPoint x="113.54999999999995" y="420" as="sourcePoint" />
          </mxGeometry>
        </mxCell>
        <mxCell id="1c1d494c118603dd-53" style="edgeStyle=none;rounded=0;html=1;dashed=1;labelBackgroundColor=none;startArrow=none;startFill=0;startSize=5;endArrow=oval;endFill=0;endSize=5;jettySize=auto;orthogonalLoop=1;strokeWidth=1;fontFamily=Verdana;fontSize=12" parent="1c1d494c118603dd-3" target="1c1d494c118603dd-15" edge="1">
          <mxGeometry relative="1" as="geometry">
            <mxPoint x="100.00000000000023" y="532.1428571428571" as="sourcePoint" />
          </mxGeometry>
        </mxCell>
        <mxCell id="RzNf7ufrXm6JMsSWA6BV-50" value="课件" style="html=1;" vertex="1" parent="1c1d494c118603dd-3">
          <mxGeometry x="138" y="320" width="60" height="20" as="geometry" />
        </mxCell>
        <mxCell id="RzNf7ufrXm6JMsSWA6BV-51" value="课程资源" style="html=1;" vertex="1" parent="1c1d494c118603dd-3">
          <mxGeometry x="56" y="320" width="60" height="20" as="geometry" />
        </mxCell>
        <mxCell id="RzNf7ufrXm6JMsSWA6BV-74" style="edgeStyle=orthogonalEdgeStyle;rounded=0;orthogonalLoop=1;jettySize=auto;html=1;exitX=0.5;exitY=1;exitDx=0;exitDy=0;entryX=0.5;entryY=0;entryDx=0;entryDy=0;" edge="1" parent="1c1d494c118603dd-3" source="RzNf7ufrXm6JMsSWA6BV-71" target="RzNf7ufrXm6JMsSWA6BV-73">
          <mxGeometry relative="1" as="geometry" />
        </mxCell>
        <mxCell id="RzNf7ufrXm6JMsSWA6BV-71" value="审核课程" style="rounded=1;whiteSpace=wrap;html=1;shadow=0;comic=0;labelBackgroundColor=none;strokeWidth=1;fontFamily=Verdana;fontSize=12;align=center;arcSize=50;" vertex="1" parent="1c1d494c118603dd-3">
          <mxGeometry x="40" y="427.5" width="100" height="30" as="geometry" />
        </mxCell>
        <mxCell id="RzNf7ufrXm6JMsSWA6BV-73" value="" style="rhombus;" vertex="1" parent="1c1d494c118603dd-3">
          <mxGeometry x="76" y="488" width="30" height="30" as="geometry" />
        </mxCell>
        <mxCell id="RzNf7ufrXm6JMsSWA6BV-84" value="" style="whiteSpace=wrap;html=1;rounded=0;shadow=0;comic=0;labelBackgroundColor=none;strokeWidth=1;fillColor=#000000;fontFamily=Verdana;fontSize=12;align=center;rotation=0;" vertex="1" parent="1c1d494c118603dd-3">
          <mxGeometry x="64" y="390" width="50" height="10" as="geometry" />
        </mxCell>
        <mxCell id="RzNf7ufrXm6JMsSWA6BV-88" style="edgeStyle=none;rounded=0;html=1;labelBackgroundColor=none;startArrow=none;startFill=0;startSize=5;endArrow=classicThin;endFill=1;endSize=5;jettySize=auto;orthogonalLoop=1;strokeWidth=1;fontFamily=Verdana;fontSize=12;exitX=0.5;exitY=1;exitDx=0;exitDy=0;entryX=0.5;entryY=0;entryDx=0;entryDy=0;" edge="1" parent="1c1d494c118603dd-3" source="RzNf7ufrXm6JMsSWA6BV-50" target="RzNf7ufrXm6JMsSWA6BV-84">
          <mxGeometry relative="1" as="geometry">
            <mxPoint x="-9" y="190" as="sourcePoint" />
            <mxPoint x="-59" y="220" as="targetPoint" />
          </mxGeometry>
        </mxCell>
        <mxCell id="RzNf7ufrXm6JMsSWA6BV-90" style="edgeStyle=none;rounded=0;html=1;labelBackgroundColor=none;startArrow=none;startFill=0;startSize=5;endArrow=classicThin;endFill=1;endSize=5;jettySize=auto;orthogonalLoop=1;strokeWidth=1;fontFamily=Verdana;fontSize=12;exitX=0.5;exitY=1;exitDx=0;exitDy=0;entryX=0.5;entryY=0;entryDx=0;entryDy=0;" edge="1" parent="1c1d494c118603dd-3" source="RzNf7ufrXm6JMsSWA6BV-51" target="RzNf7ufrXm6JMsSWA6BV-84">
          <mxGeometry relative="1" as="geometry">
            <mxPoint x="-9" y="190" as="sourcePoint" />
            <mxPoint x="-9" y="260" as="targetPoint" />
          </mxGeometry>
        </mxCell>
        <mxCell id="RzNf7ufrXm6JMsSWA6BV-91" style="edgeStyle=none;rounded=0;html=1;labelBackgroundColor=none;startArrow=none;startFill=0;startSize=5;endArrow=classicThin;endFill=1;endSize=5;jettySize=auto;orthogonalLoop=1;strokeWidth=1;fontFamily=Verdana;fontSize=12;exitX=0.5;exitY=1;exitDx=0;exitDy=0;entryX=0.5;entryY=0;entryDx=0;entryDy=0;" edge="1" parent="1c1d494c118603dd-3" source="RzNf7ufrXm6JMsSWA6BV-84" target="RzNf7ufrXm6JMsSWA6BV-71">
          <mxGeometry relative="1" as="geometry">
            <mxPoint x="-9" y="190" as="sourcePoint" />
            <mxPoint x="-9" y="260" as="targetPoint" />
          </mxGeometry>
        </mxCell>
        <mxCell id="RzNf7ufrXm6JMsSWA6BV-85" style="edgeStyle=orthogonalEdgeStyle;rounded=0;orthogonalLoop=1;jettySize=auto;html=1;exitX=0.5;exitY=1;exitDx=0;exitDy=0;entryX=0;entryY=0.5;entryDx=0;entryDy=0;" edge="1" parent="1c1d494c118603dd-1" source="RzNf7ufrXm6JMsSWA6BV-19" target="RzNf7ufrXm6JMsSWA6BV-51">
          <mxGeometry relative="1" as="geometry" />
        </mxCell>
        <mxCell id="RzNf7ufrXm6JMsSWA6BV-78" style="edgeStyle=orthogonalEdgeStyle;rounded=0;orthogonalLoop=1;jettySize=auto;html=1;exitX=1;exitY=0.5;exitDx=0;exitDy=0;entryX=1;entryY=0.5;entryDx=0;entryDy=0;" edge="1" parent="1c1d494c118603dd-1" source="RzNf7ufrXm6JMsSWA6BV-73" target="RzNf7ufrXm6JMsSWA6BV-92">
          <mxGeometry relative="1" as="geometry">
            <mxPoint x="316" y="640" as="targetPoint" />
          </mxGeometry>
        </mxCell>
        <mxCell id="RzNf7ufrXm6JMsSWA6BV-79" value="不通过" style="edgeLabel;html=1;align=center;verticalAlign=middle;resizable=0;points=[];" vertex="1" connectable="0" parent="RzNf7ufrXm6JMsSWA6BV-78">
          <mxGeometry x="-0.1361" y="-1" relative="1" as="geometry">
            <mxPoint y="-1" as="offset" />
          </mxGeometry>
        </mxCell>
        <mxCell id="RzNf7ufrXm6JMsSWA6BV-4" style="edgeStyle=none;rounded=0;html=1;labelBackgroundColor=none;startArrow=none;startFill=0;startSize=5;endArrow=classicThin;endFill=1;endSize=5;jettySize=auto;orthogonalLoop=1;strokeWidth=1;fontFamily=Verdana;fontSize=12" edge="1" parent="1">
          <mxGeometry relative="1" as="geometry">
            <mxPoint x="351" y="110" as="sourcePoint" />
            <mxPoint x="351" y="140" as="targetPoint" />
          </mxGeometry>
        </mxCell>
        <mxCell id="RzNf7ufrXm6JMsSWA6BV-14" value="非法登录" style="html=1;verticalAlign=bottom;endArrow=block;entryX=0;entryY=0.5;entryDx=0;entryDy=0;" edge="1" parent="1" target="RzNf7ufrXm6JMsSWA6BV-92">
          <mxGeometry x="0.0588" width="80" relative="1" as="geometry">
            <mxPoint x="330" y="155" as="sourcePoint" />
            <mxPoint x="180" y="810" as="targetPoint" />
            <mxPoint as="offset" />
            <Array as="points">
              <mxPoint x="160" y="155" />
              <mxPoint x="160" y="730" />
            </Array>
          </mxGeometry>
        </mxCell>
        <mxCell id="RzNf7ufrXm6JMsSWA6BV-49" value="课程" style="html=1;" vertex="1" parent="1">
          <mxGeometry x="479" y="380" width="60" height="20" as="geometry" />
        </mxCell>
        <mxCell id="RzNf7ufrXm6JMsSWA6BV-66" style="edgeStyle=orthogonalEdgeStyle;rounded=0;orthogonalLoop=1;jettySize=auto;html=1;exitX=0.5;exitY=1;exitDx=0;exitDy=0;entryX=0;entryY=0.5;entryDx=0;entryDy=0;" edge="1" parent="1" source="RzNf7ufrXm6JMsSWA6BV-17" target="RzNf7ufrXm6JMsSWA6BV-49">
          <mxGeometry relative="1" as="geometry" />
        </mxCell>
        <mxCell id="RzNf7ufrXm6JMsSWA6BV-89" style="edgeStyle=none;rounded=0;html=1;labelBackgroundColor=none;startArrow=none;startFill=0;startSize=5;endArrow=classicThin;endFill=1;endSize=5;jettySize=auto;orthogonalLoop=1;strokeWidth=1;fontFamily=Verdana;fontSize=12;exitX=0.5;exitY=1;exitDx=0;exitDy=0;entryX=0.5;entryY=0;entryDx=0;entryDy=0;" edge="1" parent="1" source="RzNf7ufrXm6JMsSWA6BV-49" target="RzNf7ufrXm6JMsSWA6BV-84">
          <mxGeometry relative="1" as="geometry">
            <mxPoint x="361" y="230" as="sourcePoint" />
            <mxPoint x="426" y="260" as="targetPoint" />
          </mxGeometry>
        </mxCell>
        <mxCell id="RzNf7ufrXm6JMsSWA6BV-96" style="edgeStyle=orthogonalEdgeStyle;rounded=0;orthogonalLoop=1;jettySize=auto;html=1;exitX=0;exitY=0.5;exitDx=0;exitDy=0;" edge="1" parent="1" source="RzNf7ufrXm6JMsSWA6BV-94">
          <mxGeometry relative="1" as="geometry">
            <mxPoint x="346" y="200" as="targetPoint" />
            <Array as="points">
              <mxPoint x="220" y="622" />
              <mxPoint x="220" y="200" />
            </Array>
          </mxGeometry>
        </mxCell>
        <mxCell id="RzNf7ufrXm6JMsSWA6BV-97" value="继续操作" style="edgeLabel;html=1;align=center;verticalAlign=middle;resizable=0;points=[];" vertex="1" connectable="0" parent="RzNf7ufrXm6JMsSWA6BV-96">
          <mxGeometry x="-0.7112" y="2" relative="1" as="geometry">
            <mxPoint as="offset" />
          </mxGeometry>
        </mxCell>
      </root>
    </mxGraphModel>
  </diagram>
  <diagram id="OIaVokobP4GxOEVaYeTk" name="Page-2">
    <mxGraphModel dx="692" dy="387" grid="1" gridSize="10" guides="1" tooltips="1" connect="1" arrows="1" fold="1" page="1" pageScale="1" pageWidth="827" pageHeight="1169" math="0" shadow="0">
      <root>
        <mxCell id="uCcaiMB1trwKr9vjNahF-0" />
        <mxCell id="uCcaiMB1trwKr9vjNahF-1" parent="uCcaiMB1trwKr9vjNahF-0" />
      </root>
    </mxGraphModel>
  </diagram>
</mxfile>
